<?xml version="1.0" encoding="UTF-8"?>
<svg width="240px" height="240px" viewBox="0 0 240 240" version="1.1" xmlns="http://www.w3.org/2000/svg" xmlns:xlink="http://www.w3.org/1999/xlink">
    <!-- Generator: Sketch 49.3 (51167) - http://www.bohemiancoding.com/sketch -->
    <title>logo_formal</title>
    <desc>Created with Sketch.</desc>
    <defs></defs>
    <g id="logo_formal" stroke="none" stroke-width="1" fill="none" fill-rule="evenodd">
        <g id="Group" transform="translate(18.000000, 52.000000)">
            <text id="商标注册-专利申请-版权登记" font-family="PingFangSC-Regular, PingFang SC" font-size="8" font-weight="normal" letter-spacing="2" fill="#A90005">
                <tspan x="38" y="133">商标注册 专利申请 版权登</tspan>
                <tspan x="157.328" y="133">记</tspan>
            </text>
            <text id="南昌红谷商标事务所有限公司" font-family="PingFangSC-Medium, PingFang SC" font-size="14" font-weight="400" letter-spacing="1.90999997" fill="#A90005">
                <tspan x="0" y="108">南昌红谷商标事务所有限公</tspan>
                <tspan x="190.92" y="108">司</tspan>
            </text>
            <g id="logo" transform="translate(60.000000, 0.000000)">
                <g id="low" transform="translate(15.729084, 0.000000)">
                    <g id="bage" fill="#A90005" fill-rule="nonzero">
                        <path d="M51.5482231,7.28670427 C51.5482231,7.28670427 53.9367012,31.4737577 47.2913307,42.3786731 C40.6442869,53.2814934 25.9382629,62.3081655 25.9382629,62.3081655 C25.9382629,62.3081655 11.2305657,53.2818426 4.5845259,42.3786731 C-2.06050996,31.4737577 0.475219124,7.42532904 0.475219124,7.42532904 C0.475219124,7.42532904 3.11168127,8.1432447 9.53450199,7.69699167 C18.3009562,7.22734354 25.9382629,0 25.9382629,0 C25.9382629,0 33.5725578,7.22734354 42.3410199,7.69699167 C48.2648606,7.8890411 51.5482231,7.28670427 51.5482231,7.28670427 Z M43.0294183,39.6348106 L9.37051793,39.6348106 L9.37051793,41.3478915 L43.0294183,41.3478915 L43.0294183,39.6348106 Z M12.4383586,22.0752082 L12.4383586,34.4952189 L11.3992351,34.4952189 L11.3992351,36.2076014 L10.1676813,36.2076014 L10.1676813,38.777921 L42.233259,38.777921 L42.233259,36.2076014 L41.0010359,36.2076014 L41.0010359,34.4952189 L39.7825339,34.4952189 L39.7825339,22.0752082 L42.7402709,22.0752082 L42.7285578,19.8324201 L26.1601434,11.1737846 L9.54621514,19.8467365 L9.52379283,22.0752082 L12.4383586,22.0752082 Z M33.2917769,22.0752082 L37.7293865,22.0752082 L37.7293865,34.4952189 L33.2917769,34.4952189 L33.2917769,22.0752082 Z M26.9934502,22.0752082 L31.2396335,22.0752082 L31.2396335,34.4952189 L26.9934502,34.4952189 L26.9934502,22.0752082 Z M20.536494,22.0752082 L24.9406375,22.0752082 L24.9406375,34.4952189 L20.536494,34.4952189 L20.536494,22.0752082 Z M14.490502,22.0752082 L18.4840159,22.0752082 L18.4840159,34.4952189 L14.490502,34.4952189 L14.490502,22.0752082 Z" id="Combined-Shape"></path>
                    </g>
                    <g transform="translate(9.370518, 11.173785)"></g>
                </g>
                <g id="wreath" transform="translate(0.000000, 16.760677)" fill="#A90005" fill-rule="nonzero">
                    <g id="download" transform="translate(0.210900, 0.305926)">
                        <path d="M39.7353828,53.2153485 C37.7811255,52.3722982 35.5513887,51.4817521 33.0885537,50.599395 C33.1917605,49.7796832 33.2133436,48.2024953 32.2997872,45.9083668 C31.1723613,43.0799105 27.3066208,40.7743175 27.3140768,40.7878292 C27.2905315,40.8119865 26.1705616,44.5838074 27.9533308,47.2013987 C28.4842766,48.0108744 29.4684688,48.8838143 30.4212673,49.600755 C28.7307171,48.8850426 27.0013172,48.0211106 25.2683855,46.9880771 C25.5434727,46.2072627 25.9437422,44.5432722 25.4304554,41.9297754 C24.8331904,38.92321 21.4889776,35.9842032 21.4976108,35.9944393 C21.4775974,36.0075416 19.6940433,39.5402458 20.9113337,42.5251106 C21.2900201,43.4909948 22.158448,44.6169726 23.004508,45.5382272 C21.3634028,44.4163438 19.7407415,43.1376425 18.180475,41.7000759 C18.621164,40.9192615 19.3208508,39.2986724 19.3094706,36.6687977 C19.2820012,33.5791146 16.5970558,30.111103 16.6076512,30.1201108 C16.5899922,30.1295281 14.2539092,33.2405024 14.8209578,36.4579327 C14.9826353,37.4242264 15.5229992,38.6161251 16.1092763,39.6553002 C14.747575,38.215277 13.4572944,36.6503726 12.2768916,34.9675476 C12.8564976,34.2686225 13.85207,32.7778279 14.319836,30.1950395 C14.8543136,27.1622695 12.9137911,23.3204332 12.9263486,23.33026 C12.904373,23.3404961 10.2056929,25.8938043 10.1311329,29.1423526 C10.1009164,30.145087 10.3936626,31.4630952 10.7539052,32.627561 C9.69083637,30.8751301 8.74706356,29.0215659 7.94103056,27.0951203 C8.59087995,26.5456431 9.81130966,25.2861858 10.7040677,22.8360581 C11.7216157,20.0112869 10.5416054,15.9745541 10.5514159,15.986428 C10.5204146,15.9954359 7.65338587,17.9353933 7.0557285,21.0308086 C6.84656803,22.0515586 6.90229183,23.4932197 7.04042407,24.7465353 C6.33916752,22.7480271 5.78114467,20.6901491 5.36792522,18.5909171 C5.99933082,18.2244625 7.3492595,17.2651294 8.60069048,14.9963865 C9.97887348,12.4803379 9.51032265,8.40757385 9.51424686,8.42190448 C9.47500475,8.4255895 6.57344293,9.77430618 5.60063095,12.606038 C5.23253994,13.6329297 5.0685079,15.1978341 5.00650537,16.4974172 C4.67765646,14.3134298 4.49282611,12.0987338 4.44926736,9.86028993 C5.04300053,9.62895268 6.37370058,8.96114548 7.85234339,7.00276301 C9.47814412,4.84416121 9.64060646,0.847554197 9.63707467,0.86106593 C9.59547804,0.855743126 6.7103979,1.65498264 5.48329704,4.19805468 C5.02455674,5.10006525 4.67765646,6.53230901 4.446128,7.74386112 C4.44141894,5.84976174 4.53246064,3.98759919 4.69610025,2.15205066 C4.762027,1.41791313 4.64508551,0.67886225 4.34056671,0.0135117336 C4.33938945,0.00859837591 4.33703492,0.00409446472 4.33546524,0 C4.07411277,2.02798837 3.88888999,4.08832302 3.81040577,6.1912401 C3.67148869,5.13159263 3.48155686,4.01462266 3.22098923,3.33166594 C2.29016632,1.10550547 0.950833009,1.12106444 1.00224018,1.11328496 C1.02460818,1.11656053 0.590197992,4.43758086 1.35659646,6.25142873 C2.07825891,7.91296251 3.20960902,8.55743126 3.76017586,8.75846948 C3.73152912,10.7971035 3.80765882,12.8201785 4.0022997,14.8248284 C3.69150217,13.8171806 3.33047473,12.7874228 2.95532013,12.1720247 C1.60303692,10.0842572 -0.0341440221,10.3725075 0.000389037168,10.3565391 C0.0141237766,10.3499879 -0.0886905589,13.867952 1.169804,15.5651076 C2.30193895,17.0747368 3.67619774,17.505065 4.34919998,17.6074266 C4.67177014,19.6964225 5.13247255,21.7543005 5.73405414,23.7626354 C5.18819635,22.7664522 4.57013307,21.7338282 4.00897086,21.1655165 C2.12731155,19.3250546 0.0557204162,20.0342159 0.0686703134,20.0182475 C0.0655309444,20.0116963 0.634149159,23.6606833 2.50442825,25.0659036 C4.20125721,26.3450143 5.86316069,26.4383681 6.60758357,26.3843212 C7.3622094,28.4229552 8.27027189,30.3882982 9.31293482,32.2545553 C8.50964877,31.3554108 7.60080144,30.4124556 6.84107414,29.9567417 C4.41865852,28.5253168 2.03313048,29.8056559 2.0315608,29.7946009 C2.01390184,29.7991048 3.54002761,33.300691 5.95302513,34.2235833 C8.14862134,35.0817832 9.94041621,34.796399 10.7130934,34.581849 C11.8880023,36.394878 13.1888783,38.0883486 14.5800112,39.6426074 C13.5765904,38.9371311 12.4507342,38.2181431 11.5693563,37.9356251 C8.73803787,37.0475357 6.3835111,38.881037 6.38115658,38.8716197 C6.3611431,38.8912731 8.88127158,41.8695868 11.5803441,42.2331752 C14.0192414,42.5877559 15.7447171,42.0006096 16.4985581,41.6435723 C17.934427,43.0483832 19.4358302,44.31562 20.9658802,45.4428261 C19.9255718,45.0071751 18.817767,44.6096026 17.9752388,44.5137921 C14.9524189,44.1940144 13.0111115,46.3452461 13.0185675,46.3264116 C13.0107191,46.3526162 16.2737008,48.5542099 18.9645325,48.4592183 C21.3174895,48.4023052 22.8373366,47.6673488 23.5448719,47.2042648 C25.203636,48.2504006 26.8675016,49.1450411 28.5031128,49.9016982 C27.4318031,49.6539831 26.3126181,49.4582677 25.4979518,49.4906139 C22.4876893,49.6572587 21.17818,51.7724591 21.195839,51.7298767 C21.2064344,51.746664 24.8167087,53.1907817 27.3164313,52.8464372 C29.6003223,52.5471319 30.9310223,51.6500346 31.4937542,51.1378171 C34.9957204,52.3575581 37.9581075,53.5617402 40.3554081,54.6287577 C40.6324575,54.7520011 49.3520549,59.3590928 49.3653972,59.3607306 C49.9591304,59.3046364 50.5646362,59.2342116 51.1799525,59.1482279 C51.1630784,59.1400389 41.0798175,53.7938964 39.7353828,53.2153485 Z" id="Shape"></path>
                    </g>
                    <g id="download" transform="translate(58.130677, 30.029546) scale(-1, 1) translate(-58.130677, -30.029546) translate(32.529084, 0.349181)">
                        <path d="M39.7353828,53.2153485 C37.7811255,52.3722982 35.5513887,51.4817521 33.0885537,50.599395 C33.1917605,49.7796832 33.2133436,48.2024953 32.2997872,45.9083668 C31.1723613,43.0799105 27.3066208,40.7743175 27.3140768,40.7878292 C27.2905315,40.8119865 26.1705616,44.5838074 27.9533308,47.2013987 C28.4842766,48.0108744 29.4684688,48.8838143 30.4212673,49.600755 C28.7307171,48.8850426 27.0013172,48.0211106 25.2683855,46.9880771 C25.5434727,46.2072627 25.9437422,44.5432722 25.4304554,41.9297754 C24.8331904,38.92321 21.4889776,35.9842032 21.4976108,35.9944393 C21.4775974,36.0075416 19.6940433,39.5402458 20.9113337,42.5251106 C21.2900201,43.4909948 22.158448,44.6169726 23.004508,45.5382272 C21.3634028,44.4163438 19.7407415,43.1376425 18.180475,41.7000759 C18.621164,40.9192615 19.3208508,39.2986724 19.3094706,36.6687977 C19.2820012,33.5791146 16.5970558,30.111103 16.6076512,30.1201108 C16.5899922,30.1295281 14.2539092,33.2405024 14.8209578,36.4579327 C14.9826353,37.4242264 15.5229992,38.6161251 16.1092763,39.6553002 C14.747575,38.215277 13.4572944,36.6503726 12.2768916,34.9675476 C12.8564976,34.2686225 13.85207,32.7778279 14.319836,30.1950395 C14.8543136,27.1622695 12.9137911,23.3204332 12.9263486,23.33026 C12.904373,23.3404961 10.2056929,25.8938043 10.1311329,29.1423526 C10.1009164,30.145087 10.3936626,31.4630952 10.7539052,32.627561 C9.69083637,30.8751301 8.74706356,29.0215659 7.94103056,27.0951203 C8.59087995,26.5456431 9.81130966,25.2861858 10.7040677,22.8360581 C11.7216157,20.0112869 10.5416054,15.9745541 10.5514159,15.986428 C10.5204146,15.9954359 7.65338587,17.9353933 7.0557285,21.0308086 C6.84656803,22.0515586 6.90229183,23.4932197 7.04042407,24.7465353 C6.33916752,22.7480271 5.78114467,20.6901491 5.36792522,18.5909171 C5.99933082,18.2244625 7.3492595,17.2651294 8.60069048,14.9963865 C9.97887348,12.4803379 9.51032265,8.40757385 9.51424686,8.42190448 C9.47500475,8.4255895 6.57344293,9.77430618 5.60063095,12.606038 C5.23253994,13.6329297 5.0685079,15.1978341 5.00650537,16.4974172 C4.67765646,14.3134298 4.49282611,12.0987338 4.44926736,9.86028993 C5.04300053,9.62895268 6.37370058,8.96114548 7.85234339,7.00276301 C9.47814412,4.84416121 9.64060646,0.847554197 9.63707467,0.86106593 C9.59547804,0.855743126 6.7103979,1.65498264 5.48329704,4.19805468 C5.02455674,5.10006525 4.67765646,6.53230901 4.446128,7.74386112 C4.44141894,5.84976174 4.53246064,3.98759919 4.69610025,2.15205066 C4.762027,1.41791313 4.64508551,0.67886225 4.34056671,0.0135117336 C4.33938945,0.00859837591 4.33703492,0.00409446472 4.33546524,0 C4.07411277,2.02798837 3.88888999,4.08832302 3.81040577,6.1912401 C3.67148869,5.13159263 3.48155686,4.01462266 3.22098923,3.33166594 C2.29016632,1.10550547 0.950833009,1.12106444 1.00224018,1.11328496 C1.02460818,1.11656053 0.590197992,4.43758086 1.35659646,6.25142873 C2.07825891,7.91296251 3.20960902,8.55743126 3.76017586,8.75846948 C3.73152912,10.7971035 3.80765882,12.8201785 4.0022997,14.8248284 C3.69150217,13.8171806 3.33047473,12.7874228 2.95532013,12.1720247 C1.60303692,10.0842572 -0.0341440221,10.3725075 0.000389037168,10.3565391 C0.0141237766,10.3499879 -0.0886905589,13.867952 1.169804,15.5651076 C2.30193895,17.0747368 3.67619774,17.505065 4.34919998,17.6074266 C4.67177014,19.6964225 5.13247255,21.7543005 5.73405414,23.7626354 C5.18819635,22.7664522 4.57013307,21.7338282 4.00897086,21.1655165 C2.12731155,19.3250546 0.0557204162,20.0342159 0.0686703134,20.0182475 C0.0655309444,20.0116963 0.634149159,23.6606833 2.50442825,25.0659036 C4.20125721,26.3450143 5.86316069,26.4383681 6.60758357,26.3843212 C7.3622094,28.4229552 8.27027189,30.3882982 9.31293482,32.2545553 C8.50964877,31.3554108 7.60080144,30.4124556 6.84107414,29.9567417 C4.41865852,28.5253168 2.03313048,29.8056559 2.0315608,29.7946009 C2.01390184,29.7991048 3.54002761,33.300691 5.95302513,34.2235833 C8.14862134,35.0817832 9.94041621,34.796399 10.7130934,34.581849 C11.8880023,36.394878 13.1888783,38.0883486 14.5800112,39.6426074 C13.5765904,38.9371311 12.4507342,38.2181431 11.5693563,37.9356251 C8.73803787,37.0475357 6.3835111,38.881037 6.38115658,38.8716197 C6.3611431,38.8912731 8.88127158,41.8695868 11.5803441,42.2331752 C14.0192414,42.5877559 15.7447171,42.0006096 16.4985581,41.6435723 C17.934427,43.0483832 19.4358302,44.31562 20.9658802,45.4428261 C19.9255718,45.0071751 18.817767,44.6096026 17.9752388,44.5137921 C14.9524189,44.1940144 13.0111115,46.3452461 13.0185675,46.3264116 C13.0107191,46.3526162 16.2737008,48.5542099 18.9645325,48.4592183 C21.3174895,48.4023052 22.8373366,47.6673488 23.5448719,47.2042648 C25.203636,48.2504006 26.8675016,49.1450411 28.5031128,49.9016982 C27.4318031,49.6539831 26.3126181,49.4582677 25.4979518,49.4906139 C22.4876893,49.6572587 21.17818,51.7724591 21.195839,51.7298767 C21.2064344,51.746664 24.8167087,53.1907817 27.3164313,52.8464372 C29.6003223,52.5471319 30.9310223,51.6500346 31.4937542,51.1378171 C34.9957204,52.3575581 37.9581075,53.5617402 40.3554081,54.6287577 C40.6324575,54.7520011 49.3520549,59.3590928 49.3653972,59.3607306 C49.9591304,59.3046364 50.5646362,59.2342116 51.1799525,59.1482279 C51.1630784,59.1400389 41.0798175,53.7938964 39.7353828,53.2153485 Z" id="Shape"></path>
                    </g>
                </g>
            </g>
        </g>
    </g>
</svg>