<?xml version="1.0" encoding="UTF-8"?>
<svg width="364px" height="80px" viewBox="0 0 364 80" version="1.1" xmlns="http://www.w3.org/2000/svg" xmlns:xlink="http://www.w3.org/1999/xlink">
    <!-- Generator: Sketch 49.3 (51167) - http://www.bohemiancoding.com/sketch -->
    <title>logo</title>
    <desc>Created with Sketch.</desc>
    <defs></defs>
    <g id="logo" stroke="none" stroke-width="1" fill="none" fill-rule="evenodd">
        <g transform="translate(0.000000, 8.000000)">
            <g id="low" transform="translate(13.856574, 0.000000)">
                <g id="bage" fill="#FFFFFF" fill-rule="nonzero">
                    <path d="M45.4115299,6.19369863 C45.4115299,6.19369863 47.5156653,26.7526941 41.6614104,36.0218721 C35.8056813,45.2892694 22.8503745,52.9619406 22.8503745,52.9619406 C22.8503745,52.9619406 9.89359363,45.2895662 4.038749,36.0218721 C-1.81521116,26.7526941 0.418645418,6.31152968 0.418645418,6.31152968 C0.418645418,6.31152968 2.74124303,6.92175799 8.39944223,6.54244292 C16.1222709,6.14324201 22.8503745,0 22.8503745,0 C22.8503745,0 29.5758247,6.14324201 37.3004223,6.54244292 C42.5190438,6.70568493 45.4115299,6.19369863 45.4115299,6.19369863 Z M37.9068685,33.689589 L8.25498008,33.689589 L8.25498008,35.1457078 L37.9068685,35.1457078 L37.9068685,33.689589 Z M10.9576016,18.7639269 L10.9576016,29.3209361 L10.0421833,29.3209361 L10.0421833,30.7764612 L8.95724303,30.7764612 L8.95724303,32.9612329 L37.20549,32.9612329 L37.20549,30.7764612 L36.1199602,30.7764612 L36.1199602,29.3209361 L35.0465179,29.3209361 L35.0465179,18.7639269 L37.6521434,18.7639269 L37.6418247,16.8575571 L23.0458406,9.49771689 L8.40976096,16.869726 L8.39000797,18.7639269 L10.9576016,18.7639269 Z M29.3284701,18.7639269 L33.2377928,18.7639269 L33.2377928,29.3209361 L29.3284701,29.3209361 L29.3284701,18.7639269 Z M23.7799442,18.7639269 L27.5206295,18.7639269 L27.5206295,29.3209361 L23.7799442,29.3209361 L23.7799442,18.7639269 Z M18.0916733,18.7639269 L21.9715139,18.7639269 L21.9715139,29.3209361 L18.0916733,29.3209361 L18.0916733,18.7639269 Z M12.7654422,18.7639269 L16.2835378,18.7639269 L16.2835378,29.3209361 L12.7654422,29.3209361 L12.7654422,18.7639269 Z" id="Combined-Shape"></path>
                </g>
                <g transform="translate(8.254980, 9.497717)"></g>
            </g>
            <g id="wreath" transform="translate(0.000000, 14.246575)" fill="#FFFFFF" fill-rule="nonzero">
                <g id="download" transform="translate(0.185793, 0.260037)">
                    <path d="M35.0049801,45.2330462 C33.2833725,44.5164535 31.3190805,43.7594893 29.1494402,43.0094857 C29.2403604,42.3127307 29.2593741,40.972121 28.4545745,39.0221117 C27.4613659,36.617924 24.0558326,34.6581698 24.062401,34.6696548 C24.0416587,34.6901885 23.0550186,37.8962363 24.6255533,40.1211889 C25.0932913,40.8092432 25.9603177,41.5512421 26.7996879,42.1606418 C25.3103936,41.5522862 23.7868746,40.817944 22.2602443,39.9398655 C22.5025831,39.2761733 22.8552015,37.8617814 22.4030202,35.6403091 C21.8768582,33.0847285 18.930766,30.5865727 18.9383715,30.5952734 C18.9207405,30.6064104 17.3495144,33.6092089 18.4218892,36.146344 C18.7554939,36.9673456 19.5205375,37.9244267 20.2658761,38.7074931 C18.8201406,37.7538922 17.3906532,36.6669961 16.0161328,35.4450645 C16.4043587,34.7813723 17.0207496,33.4038715 17.0107241,31.168478 C16.9865248,28.5422474 14.6212158,25.5944375 14.6305498,25.6020942 C14.6149931,25.6100989 12.5570153,28.254427 13.056558,30.9892428 C13.1989882,31.8105925 13.6750231,32.8237063 14.1915053,33.7070052 C12.9919113,32.4829855 11.8552355,31.1528167 10.8153569,29.7224154 C11.3259622,29.1283291 12.2030141,27.8611537 12.6150936,25.6657836 C13.0859429,23.0879291 11.376435,19.8223683 11.3874975,19.830721 C11.3681381,19.8394217 8.99072945,22.0097337 8.92504563,24.7709997 C8.89842639,25.623324 9.15632182,26.7436309 9.47367839,27.7334269 C8.53716537,26.2438606 7.70574647,24.668331 6.99566978,23.0308522 C7.56815614,22.5637966 8.6432966,21.4932579 9.42977395,19.4106494 C10.3261853,17.0095938 9.28665235,13.578371 9.29529496,13.5884638 C9.26798432,13.5961205 6.74226851,15.2450843 6.21576082,17.8761873 C6.03150041,18.7438248 6.08059043,19.9692367 6.20227835,21.034555 C5.58450472,19.335823 5.09291316,17.5866267 4.72888651,15.8022795 C5.28512477,15.4907931 6.47434765,14.67536 7.57679875,12.7469285 C8.79091235,10.6082872 8.37814138,7.14643777 8.38159843,7.15861881 C8.34702799,7.16175107 5.7908902,8.30816025 4.93388917,10.7151323 C4.60961851,11.5879903 4.46511411,12.918159 4.41049282,14.0228047 C4.1207926,12.1664153 3.95796586,10.2839237 3.91959268,8.38124644 C4.44264332,8.18460978 5.6149267,7.61697366 6.9175406,5.95234856 C8.34979363,4.11753703 8.49291522,0.720421067 8.48980388,0.731906041 C8.45315922,0.727381657 5.91154101,1.40673524 4.83052358,3.56834647 C4.42639522,4.33505547 4.1207926,5.55246266 3.91682704,6.58228195 C3.91267859,4.97229748 3.992882,3.38945931 4.1370407,1.82924306 C4.19511903,1.20522616 4.09209914,0.577032913 3.82383258,0.0114849735 C3.82279547,0.00730861952 3.82072124,0.00348029501 3.81933842,0 C3.58909934,1.72379012 3.4259269,3.47507457 3.35678603,5.26255409 C3.2344067,4.36185374 3.06708581,3.41242926 2.83753813,2.83191605 C2.01752747,0.939679653 0.837638603,0.952904774 0.88292587,0.946292213 C0.902631017,0.949076449 0.519936327,3.77194373 1.19509688,5.31371442 C1.83084713,6.72601814 2.82751271,7.27381657 3.31253588,7.44469906 C3.28729946,9.17753794 3.3543661,10.8971517 3.52583545,12.6011041 C3.25203762,11.7446035 2.93398964,10.8693093 2.60349631,10.346221 C1.41219919,8.57161858 -0.0300792576,8.81663135 0.000342723219,8.8030582 C0.0124423747,8.79748973 -0.078132159,11.7877592 1.03054162,13.2303415 C2.0278986,14.5135263 3.23855515,14.8793053 3.83143807,14.9663126 C4.11560703,16.7419591 4.52146391,18.4911554 5.05142864,20.1982401 C4.57055393,19.3514843 4.02606961,18.4737539 3.53171242,17.990689 C1.87406018,16.4262964 0.0490870333,17.0290835 0.0604952761,17.0155103 C0.0577296415,17.0099419 0.558655211,20.1115808 2.20628203,21.306018 C3.70110754,22.3932622 5.16516537,22.4726129 5.82096648,22.426673 C6.4857559,24.1595119 7.28571571,25.8300535 8.20425211,27.416372 C7.49659535,26.6520992 6.69594413,25.8505873 6.02666055,25.4632304 C3.89262774,24.2465193 1.79109114,25.3348075 1.78970832,25.3254107 C1.77415162,25.3292391 3.11859575,28.3055874 5.24433166,29.0900458 C7.17854737,29.8195157 8.75703332,29.5769391 9.43772514,29.3945717 C10.4727639,30.9356463 11.6187737,32.3750963 12.8442956,33.6962163 C11.9603296,33.0965615 10.9685039,32.4854217 10.192052,32.2452813 C7.69779527,31.4904053 5.62356931,33.0488814 5.62149508,33.0408767 C5.60386416,33.0575822 7.82397735,35.5891487 10.2017317,35.8981989 C12.3502841,36.1995925 13.870346,35.7005182 14.534444,35.3970365 C15.7993762,36.5911257 17.1220409,37.668277 18.4699421,38.6264022 C17.5534799,38.2560988 16.5775566,37.9181622 15.8353294,37.8367233 C13.172369,37.5649122 11.4621697,39.3934592 11.4687381,39.3774499 C11.461824,39.3997238 14.3363555,41.2710784 16.70685,41.1903355 C18.7796932,41.1419594 20.118606,40.5172465 20.7419109,40.1236251 C22.2032031,41.0128405 23.6689895,41.773285 25.1098851,42.4164435 C24.1661123,42.2058856 23.1801635,42.0395275 22.4624814,42.0670219 C19.8105835,42.2086699 18.6569681,44.0065903 18.6725248,43.9703952 C18.6818588,43.9846644 21.8623387,45.2121645 24.0644752,44.9194716 C26.0764744,44.6650621 27.2487578,43.9025294 27.7444978,43.4671445 C30.8295632,44.5039244 33.4392852,45.5274792 35.5511929,46.4344441 C35.7952601,46.5392009 43.4768103,50.4552289 43.4885642,50.456621 C44.0116149,50.408941 44.5450367,50.3490799 45.087101,50.2759937 C45.0722358,50.2690331 36.1893631,45.7248119 35.0049801,45.2330462 Z" id="Shape"></path>
                </g>
                <g id="download" transform="translate(51.210359, 25.525114) scale(-1, 1) translate(-51.210359, -25.525114) translate(28.656574, 0.296804)">
                    <path d="M35.0049801,45.2330462 C33.2833725,44.5164535 31.3190805,43.7594893 29.1494402,43.0094857 C29.2403604,42.3127307 29.2593741,40.972121 28.4545745,39.0221117 C27.4613659,36.617924 24.0558326,34.6581698 24.062401,34.6696548 C24.0416587,34.6901885 23.0550186,37.8962363 24.6255533,40.1211889 C25.0932913,40.8092432 25.9603177,41.5512421 26.7996879,42.1606418 C25.3103936,41.5522862 23.7868746,40.817944 22.2602443,39.9398655 C22.5025831,39.2761733 22.8552015,37.8617814 22.4030202,35.6403091 C21.8768582,33.0847285 18.930766,30.5865727 18.9383715,30.5952734 C18.9207405,30.6064104 17.3495144,33.6092089 18.4218892,36.146344 C18.7554939,36.9673456 19.5205375,37.9244267 20.2658761,38.7074931 C18.8201406,37.7538922 17.3906532,36.6669961 16.0161328,35.4450645 C16.4043587,34.7813723 17.0207496,33.4038715 17.0107241,31.168478 C16.9865248,28.5422474 14.6212158,25.5944375 14.6305498,25.6020942 C14.6149931,25.6100989 12.5570153,28.254427 13.056558,30.9892428 C13.1989882,31.8105925 13.6750231,32.8237063 14.1915053,33.7070052 C12.9919113,32.4829855 11.8552355,31.1528167 10.8153569,29.7224154 C11.3259622,29.1283291 12.2030141,27.8611537 12.6150936,25.6657836 C13.0859429,23.0879291 11.376435,19.8223683 11.3874975,19.830721 C11.3681381,19.8394217 8.99072945,22.0097337 8.92504563,24.7709997 C8.89842639,25.623324 9.15632182,26.7436309 9.47367839,27.7334269 C8.53716537,26.2438606 7.70574647,24.668331 6.99566978,23.0308522 C7.56815614,22.5637966 8.6432966,21.4932579 9.42977395,19.4106494 C10.3261853,17.0095938 9.28665235,13.578371 9.29529496,13.5884638 C9.26798432,13.5961205 6.74226851,15.2450843 6.21576082,17.8761873 C6.03150041,18.7438248 6.08059043,19.9692367 6.20227835,21.034555 C5.58450472,19.335823 5.09291316,17.5866267 4.72888651,15.8022795 C5.28512477,15.4907931 6.47434765,14.67536 7.57679875,12.7469285 C8.79091235,10.6082872 8.37814138,7.14643777 8.38159843,7.15861881 C8.34702799,7.16175107 5.7908902,8.30816025 4.93388917,10.7151323 C4.60961851,11.5879903 4.46511411,12.918159 4.41049282,14.0228047 C4.1207926,12.1664153 3.95796586,10.2839237 3.91959268,8.38124644 C4.44264332,8.18460978 5.6149267,7.61697366 6.9175406,5.95234856 C8.34979363,4.11753703 8.49291522,0.720421067 8.48980388,0.731906041 C8.45315922,0.727381657 5.91154101,1.40673524 4.83052358,3.56834647 C4.42639522,4.33505547 4.1207926,5.55246266 3.91682704,6.58228195 C3.91267859,4.97229748 3.992882,3.38945931 4.1370407,1.82924306 C4.19511903,1.20522616 4.09209914,0.577032913 3.82383258,0.0114849735 C3.82279547,0.00730861952 3.82072124,0.00348029501 3.81933842,0 C3.58909934,1.72379012 3.4259269,3.47507457 3.35678603,5.26255409 C3.2344067,4.36185374 3.06708581,3.41242926 2.83753813,2.83191605 C2.01752747,0.939679653 0.837638603,0.952904774 0.88292587,0.946292213 C0.902631017,0.949076449 0.519936327,3.77194373 1.19509688,5.31371442 C1.83084713,6.72601814 2.82751271,7.27381657 3.31253588,7.44469906 C3.28729946,9.17753794 3.3543661,10.8971517 3.52583545,12.6011041 C3.25203762,11.7446035 2.93398964,10.8693093 2.60349631,10.346221 C1.41219919,8.57161858 -0.0300792576,8.81663135 0.000342723219,8.8030582 C0.0124423747,8.79748973 -0.078132159,11.7877592 1.03054162,13.2303415 C2.0278986,14.5135263 3.23855515,14.8793053 3.83143807,14.9663126 C4.11560703,16.7419591 4.52146391,18.4911554 5.05142864,20.1982401 C4.57055393,19.3514843 4.02606961,18.4737539 3.53171242,17.990689 C1.87406018,16.4262964 0.0490870333,17.0290835 0.0604952761,17.0155103 C0.0577296415,17.0099419 0.558655211,20.1115808 2.20628203,21.306018 C3.70110754,22.3932622 5.16516537,22.4726129 5.82096648,22.426673 C6.4857559,24.1595119 7.28571571,25.8300535 8.20425211,27.416372 C7.49659535,26.6520992 6.69594413,25.8505873 6.02666055,25.4632304 C3.89262774,24.2465193 1.79109114,25.3348075 1.78970832,25.3254107 C1.77415162,25.3292391 3.11859575,28.3055874 5.24433166,29.0900458 C7.17854737,29.8195157 8.75703332,29.5769391 9.43772514,29.3945717 C10.4727639,30.9356463 11.6187737,32.3750963 12.8442956,33.6962163 C11.9603296,33.0965615 10.9685039,32.4854217 10.192052,32.2452813 C7.69779527,31.4904053 5.62356931,33.0488814 5.62149508,33.0408767 C5.60386416,33.0575822 7.82397735,35.5891487 10.2017317,35.8981989 C12.3502841,36.1995925 13.870346,35.7005182 14.534444,35.3970365 C15.7993762,36.5911257 17.1220409,37.668277 18.4699421,38.6264022 C17.5534799,38.2560988 16.5775566,37.9181622 15.8353294,37.8367233 C13.172369,37.5649122 11.4621697,39.3934592 11.4687381,39.3774499 C11.461824,39.3997238 14.3363555,41.2710784 16.70685,41.1903355 C18.7796932,41.1419594 20.118606,40.5172465 20.7419109,40.1236251 C22.2032031,41.0128405 23.6689895,41.773285 25.1098851,42.4164435 C24.1661123,42.2058856 23.1801635,42.0395275 22.4624814,42.0670219 C19.8105835,42.2086699 18.6569681,44.0065903 18.6725248,43.9703952 C18.6818588,43.9846644 21.8623387,45.2121645 24.0644752,44.9194716 C26.0764744,44.6650621 27.2487578,43.9025294 27.7444978,43.4671445 C30.8295632,44.5039244 33.4392852,45.5274792 35.5511929,46.4344441 C35.7952601,46.5392009 43.4768103,50.4552289 43.4885642,50.456621 C44.0116149,50.408941 44.5450367,50.3490799 45.087101,50.2759937 C45.0722358,50.2690331 36.1893631,45.7248119 35.0049801,45.2330462 Z" id="Shape"></path>
                </g>
            </g>
        </g>
        <text id="南昌红谷商标事务所" font-family="PingFangSC-Medium, PingFang SC" font-size="31" font-weight="400" fill="#FFFFFF">
            <tspan x="85" y="41">南昌红谷商标事务所</tspan>
        </text>
        <text id="专业快捷的服务-值得您的信赖" font-family="PingFangSC-Regular, PingFang SC" font-size="14" font-weight="normal" fill="#FFFFFF">
            <tspan x="85" y="68">专业快捷的服务 值得您的信赖</tspan>
        </text>
    </g>
</svg>